<svg data-v-423bf9ae="" xmlns="http://www.w3.org/2000/svg" viewBox="0 0 818 90" class="iconLeft"><!----><!----><!----><g data-v-423bf9ae="" id="714fa21c-3e80-45f5-9fce-c9159d47d269" fill="#000000" transform="matrix(5.6980053264473165,0,0,5.6980053264473165,103.21936812457346,-7.735042022120943)"><path d="M6.92 14.35L7.21 14.35L7.21 4.58L6.76 4.58L4.23 10.22L4.19 10.22L1.64 4.58L1.19 4.58L1.19 14.35L1.48 14.35L1.48 5.01L1.53 5.01L4.20 10.92L6.87 5.01L6.92 5.01ZM11.00 9.09L11.00 9.37L12.35 9.37C13.93 9.37 14.92 10.25 14.92 11.58L14.92 11.97C14.92 13.33 13.87 14.24 12.36 14.24C11.10 14.24 10.23 13.82 9.63 12.87L9.38 13.02C10.02 14.04 11.00 14.52 12.36 14.52C14.14 14.52 15.26 13.45 15.26 11.73C15.26 10.29 14.41 9.41 13.09 9.24L13.09 9.20C14.24 8.97 15.05 8.23 15.05 6.85C15.05 5.36 14.01 4.41 12.42 4.41C11.02 4.41 10.12 5.05 9.73 5.96L9.98 6.08C10.40 5.24 11.12 4.69 12.42 4.69C13.78 4.69 14.71 5.50 14.71 6.71L14.71 7.04C14.71 8.25 13.73 9.09 12.32 9.09ZM23.13 14.35L23.42 14.35L23.42 7.13L23.13 7.13L23.13 12.33C23.13 13.62 22.08 14.25 20.92 14.25C19.52 14.25 18.73 13.51 18.73 11.79L18.73 7.13L18.44 7.13L18.44 11.83C18.44 13.58 19.28 14.52 20.87 14.52C22.15 14.52 22.83 13.93 23.09 13.31L23.13 13.31ZM29.40 14.52C31.36 14.52 32.59 13.45 32.59 11.83C32.59 10.44 31.77 9.48 30.44 9.25L30.44 9.20C31.56 8.97 32.26 8.12 32.26 6.86C32.26 5.36 31.15 4.41 29.40 4.41C27.65 4.41 26.54 5.36 26.54 6.86C26.54 8.12 27.24 8.97 28.36 9.20L28.36 9.25C27.03 9.48 26.21 10.44 26.21 11.83C26.21 13.45 27.44 14.52 29.40 14.52ZM29.40 14.24C27.66 14.24 26.54 13.31 26.54 11.98L26.54 11.62C26.54 10.29 27.66 9.37 29.40 9.37C31.14 9.37 32.26 10.29 32.26 11.62L32.26 11.98C32.26 13.31 31.14 14.24 29.40 14.24ZM29.40 9.09C27.87 9.09 26.88 8.27 26.88 7.06L26.88 6.72C26.88 5.50 27.87 4.69 29.40 4.69C30.93 4.69 31.92 5.50 31.92 6.72L31.92 7.06C31.92 8.27 30.93 9.09 29.40 9.09ZM43.51 14.35L46.06 14.35C48.40 14.35 49.39 12.70 49.39 9.46C49.39 6.23 48.40 4.58 46.06 4.58L43.51 4.58ZM43.82 14.07L43.82 4.86L46.07 4.86C48.16 4.86 49.06 6.43 49.06 9.02L49.06 9.91C49.06 12.50 48.16 14.07 46.07 14.07ZM54.60 14.52C56.45 14.52 57.54 13.24 57.54 10.74C57.54 8.23 56.45 6.96 54.60 6.96C52.75 6.96 51.66 8.23 51.66 10.74C51.66 13.24 52.75 14.52 54.60 14.52ZM54.60 14.25C52.92 14.25 51.98 13.03 51.98 11.07L51.98 10.40C51.98 8.44 52.92 7.22 54.60 7.22C56.28 7.22 57.22 8.44 57.22 10.40L57.22 11.07C57.22 13.03 56.28 14.25 54.60 14.25ZM60.69 14.35L61.17 14.35L62.99 7.41L63.03 7.41L64.83 14.35L65.31 14.35L66.67 7.13L66.40 7.13L65.09 14.08L65.04 14.08L63.22 7.13L62.79 7.13L60.97 14.08L60.93 14.08L59.61 7.13L59.33 7.13ZM69.27 14.35L69.27 9.14C69.27 7.85 70.32 7.22 71.48 7.22C72.88 7.22 73.67 7.97 73.67 9.69L73.67 14.35L73.96 14.35L73.96 9.65C73.96 7.90 73.12 6.96 71.53 6.96C70.25 6.96 69.57 7.55 69.31 8.16L69.27 8.16L69.27 7.13L68.98 7.13L68.98 14.35ZM76.87 14.35L82.74 14.35L82.74 14.08L79.95 14.08L79.95 3.99L76.87 3.99L76.87 4.26L79.66 4.26L79.66 14.08L76.87 14.08ZM88.20 14.52C90.05 14.52 91.14 13.24 91.14 10.74C91.14 8.23 90.05 6.96 88.20 6.96C86.35 6.96 85.26 8.23 85.26 10.74C85.26 13.24 86.35 14.52 88.20 14.52ZM88.20 14.25C86.52 14.25 85.58 13.03 85.58 11.07L85.58 10.40C85.58 8.44 86.52 7.22 88.20 7.22C89.88 7.22 90.82 8.44 90.82 10.40L90.82 11.07C90.82 13.03 89.88 14.25 88.20 14.25ZM99.83 14.35L99.83 14.08L98.64 14.08L98.64 9.32C98.64 7.83 97.76 6.96 96.25 6.96C94.96 6.96 94.14 7.55 93.73 8.47L93.97 8.61C94.37 7.64 95.23 7.22 96.25 7.22C97.55 7.22 98.35 7.91 98.35 9.37L98.35 10.50L96.25 10.50C94.12 10.50 93.49 11.35 93.49 12.53C93.49 13.80 94.35 14.52 95.89 14.52C97.24 14.52 97.96 13.94 98.31 13.27L98.35 13.27L98.35 13.94C98.35 14.22 98.48 14.35 98.76 14.35ZM95.89 14.25C94.67 14.25 93.81 13.72 93.81 12.75L93.81 12.31C93.81 11.38 94.50 10.75 96.26 10.75L98.35 10.75L98.35 12.28C98.35 13.59 97.20 14.25 95.89 14.25ZM107.16 14.35L107.45 14.35L107.45 3.99L107.16 3.99L107.16 8.22L107.11 8.22C106.82 7.60 106.08 6.96 104.86 6.96C103.01 6.96 101.92 8.23 101.92 10.74C101.92 13.24 103.01 14.52 104.86 14.52C106.08 14.52 106.82 13.87 107.11 13.26L107.16 13.26ZM104.86 14.25C103.18 14.25 102.24 13.03 102.24 11.07L102.24 10.40C102.24 8.44 103.18 7.22 104.86 7.22C106.06 7.22 107.16 7.99 107.16 9.13L107.16 12.35C107.16 13.48 106.06 14.25 104.86 14.25ZM113.48 14.52C114.88 14.52 115.82 13.79 116.24 12.61L115.99 12.52C115.56 13.68 114.69 14.25 113.48 14.25C111.76 14.25 110.81 13.03 110.81 11.07L110.81 10.71L116.35 10.71L116.35 10.61C116.35 8.39 115.35 6.96 113.43 6.96C111.58 6.96 110.49 8.23 110.49 10.74C110.49 13.24 111.59 14.52 113.48 14.52ZM113.43 7.22C115.11 7.22 116.05 8.44 116.05 10.40L116.05 10.46L110.81 10.46L110.81 10.40C110.81 8.44 111.75 7.22 113.43 7.22ZM118.72 14.35L124.67 14.35L124.67 14.08L121.51 14.08L121.51 9.72C121.51 8.12 122.57 7.39 123.72 7.39L125.38 7.39L125.38 7.13L123.77 7.13C122.46 7.13 121.87 7.76 121.55 8.53L121.51 8.53L121.51 7.13L118.72 7.13L118.72 7.39L121.21 7.39L121.21 14.08L118.72 14.08Z"></path></g><defs data-v-423bf9ae=""><linearGradient data-v-423bf9ae="" gradientTransform="rotate(25)" id="2d940f06-9198-4462-ba5f-d05bcb878fa3" x1="0%" y1="0%" x2="100%" y2="0%"><stop data-v-423bf9ae="" offset="0%" style="stop-color: rgb(208, 160, 112); stop-opacity: 1;"></stop><stop data-v-423bf9ae="" offset="100%" style="stop-color: rgb(107, 227, 113); stop-opacity: 1;"></stop></linearGradient></defs><g data-v-423bf9ae="" id="4c860615-7e10-4da4-8e00-419d35df579e" transform="matrix(2.812499664723913,0,0,2.812499664723913,0.000005364417390296694,-0.018124997930137)" stroke="none" fill="url(#2d940f06-9198-4462-ba5f-d05bcb878fa3)"><path d="M6.651 27h6.024v5.01h6.651V27h6.024v5.01H32v-32h-6.651V5h-6.024V.01h-6.651V5H6.651V.01H0v32h6.651V27zM19.325 7h6.024v4.666h-6.024V7zm0 6.666h6.024v4.667h-6.024v-4.667zm0 6.667h6.024V25h-6.024v-4.667zM6.651 7h6.024v4.666H6.651V7zm0 6.666h6.024v4.667H6.651v-4.667zm0 6.667h6.024V25H6.651v-4.667z"></path></g><!----></svg>